<?xml version="1.0" encoding="UTF-8"?>
<svg xmlns="http://www.w3.org/2000/svg" xmlns:xlink="http://www.w3.org/1999/xlink" width="200pt" height="55pt" viewBox="0 0 200 55" version="1.1">
<g id="surface1">
<path style=" stroke:none;fill-rule:evenodd;fill:rgb(100%,75.294118%,0%);fill-opacity:1;" d="M 38.785156 16.976562 L 47.738281 0 L 61.582031 26.246094 L 43.902344 26.246094 C 43.570312 22.472656 41.636719 19.15625 38.785156 16.976562 Z M 38.785156 16.976562 "/>
<path style=" stroke:none;fill-rule:evenodd;fill:rgb(92.156863%,30.980392%,21.960784%);fill-opacity:1;" d="M 43.902344 28.542969 L 61.582031 28.542969 L 47.738281 54.789062 L 38.785156 37.8125 C 41.636719 35.632812 43.570312 32.316406 43.902344 28.542969 Z M 43.902344 28.542969 "/>
<path style=" stroke:none;fill-rule:evenodd;fill:rgb(16.470588%,57.254902%,100%);fill-opacity:1;" d="M 25.148438 39.246094 C 26.859375 40.054688 28.773438 40.511719 30.789062 40.511719 C 32.808594 40.511719 34.722656 40.054688 36.433594 39.246094 L 44.632812 54.789062 L 16.949219 54.789062 Z M 25.148438 39.246094 "/>
<path style=" stroke:none;fill-rule:evenodd;fill:rgb(0%,45.882353%,89.019608%);fill-opacity:1;" d="M 17.679688 28.542969 C 18.007812 32.316406 19.945312 35.632812 22.796875 37.8125 L 13.84375 54.789062 L 0 28.542969 Z M 17.679688 28.542969 "/>
<path style=" stroke:none;fill-rule:evenodd;fill:rgb(10.588235%,70.196078%,28.235294%);fill-opacity:1;" d="M 22.796875 16.976562 C 19.945312 19.15625 18.007812 22.472656 17.679688 26.246094 L 0 26.246094 L 13.84375 0 Z M 22.796875 16.976562 "/>
<path style=" stroke:none;fill-rule:evenodd;fill:rgb(7.45098%,54.901961%,16.078431%);fill-opacity:1;" d="M 36.433594 15.546875 C 34.722656 14.734375 32.808594 14.28125 30.789062 14.28125 C 28.773438 14.28125 26.859375 14.734375 25.148438 15.546875 L 16.949219 0 L 44.632812 0 Z M 36.433594 15.546875 "/>
<path style=" stroke:none;fill-rule:nonzero;fill:rgb(50.196078%,50.196078%,50.196078%);fill-opacity:1;" d="M 82.414062 13.660156 L 87.425781 13.660156 L 87.425781 43.480469 C 87.425781 45.878906 86.882812 47.640625 85.851562 48.765625 C 84.820312 49.894531 83.050781 50.480469 80.546875 50.480469 L 73.960938 50.480469 L 73.960938 46.269531 L 79.316406 46.269531 C 80.445312 46.269531 81.234375 46.074219 81.675781 45.730469 C 82.117188 45.339844 82.3125 44.605469 82.3125 43.480469 L 82.3125 39.707031 C 81.871094 40.441406 81.28125 40.980469 80.59375 41.277344 C 79.859375 41.570312 78.925781 41.714844 77.792969 41.714844 C 76.859375 41.714844 76.125 41.617188 75.484375 41.421875 C 74.847656 41.226562 74.355469 40.882812 74.011719 40.441406 C 73.617188 40.003906 73.324219 39.367188 73.175781 38.582031 C 73.027344 37.847656 72.929688 36.867188 72.929688 35.742188 L 72.929688 13.660156 L 77.941406 13.660156 L 77.941406 34.8125 C 77.941406 35.742188 78.089844 36.378906 78.433594 36.722656 C 78.777344 37.066406 79.316406 37.261719 80.054688 37.261719 C 80.691406 37.261719 81.183594 37.164062 81.527344 36.917969 C 81.871094 36.671875 82.167969 36.28125 82.414062 35.742188 Z M 82.414062 13.660156 "/>
<path style=" stroke:none;fill-rule:nonzero;fill:rgb(50.196078%,50.196078%,50.196078%);fill-opacity:1;" d="M 97.988281 43.480469 C 96.613281 43.480469 95.480469 43.429688 94.648438 43.332031 C 93.761719 43.183594 93.074219 42.941406 92.582031 42.546875 C 92.089844 42.15625 91.746094 41.570312 91.601562 40.835938 C 91.402344 40.101562 91.304688 39.074219 91.304688 37.800781 L 91.304688 30.699219 C 91.304688 28.9375 91.648438 27.664062 92.335938 26.832031 C 92.976562 26 94.15625 25.605469 95.777344 25.605469 L 96.710938 25.605469 C 97.839844 25.605469 98.625 25.65625 99.070312 25.703125 C 99.511719 25.804688 99.855469 25.902344 100.101562 26.046875 L 100.101562 19.976562 C 100.101562 18.949219 99.953125 18.261719 99.707031 17.917969 C 99.460938 17.578125 98.871094 17.429688 98.035156 17.429688 C 97.101562 17.429688 96.515625 17.578125 96.269531 17.917969 C 96.023438 18.261719 95.875 18.949219 95.875 19.976562 L 95.875 22.863281 L 91.304688 22.863281 L 91.304688 19.386719 C 91.304688 18.019531 91.402344 16.890625 91.601562 16.058594 C 91.746094 15.226562 92.089844 14.640625 92.582031 14.199219 C 93.074219 13.757812 93.761719 13.511719 94.597656 13.367188 C 95.433594 13.21875 96.5625 13.171875 97.9375 13.171875 C 99.363281 13.171875 100.542969 13.21875 101.476562 13.367188 C 102.410156 13.511719 103.097656 13.808594 103.636719 14.199219 C 104.128906 14.640625 104.472656 15.277344 104.671875 16.109375 C 104.867188 16.941406 104.964844 18.019531 104.964844 19.386719 L 104.964844 42.988281 C 104.375 43.136719 103.492188 43.28125 102.261719 43.382812 C 101.035156 43.429688 99.609375 43.480469 97.988281 43.480469 Z M 98.28125 39.367188 C 99.214844 39.367188 99.855469 39.316406 100.101562 39.269531 L 100.101562 29.671875 C 99.855469 29.523438 99.609375 29.476562 99.265625 29.425781 C 98.921875 29.378906 98.578125 29.378906 98.234375 29.378906 C 97.691406 29.378906 97.25 29.425781 96.957031 29.476562 C 96.613281 29.523438 96.367188 29.671875 96.21875 29.867188 C 96.070312 30.0625 95.972656 30.308594 95.925781 30.652344 C 95.875 30.992188 95.875 31.433594 95.875 31.972656 L 95.875 36.574219 C 95.875 37.210938 95.875 37.703125 95.925781 38.042969 C 95.972656 38.386719 96.070312 38.679688 96.21875 38.875 C 96.367188 39.074219 96.613281 39.21875 96.957031 39.269531 C 97.300781 39.316406 97.742188 39.367188 98.28125 39.367188 Z M 98.28125 39.367188 "/>
<path style=" stroke:none;fill-rule:nonzero;fill:rgb(50.196078%,50.196078%,50.196078%);fill-opacity:1;" d="M 114.695312 46.269531 C 115.824219 46.269531 116.5625 46.074219 117.003906 45.730469 C 117.445312 45.339844 117.640625 44.605469 117.640625 43.480469 L 117.640625 39.707031 C 117.25 40.34375 116.707031 40.835938 116.070312 41.175781 C 115.429688 41.570312 114.449219 41.714844 113.21875 41.714844 C 112.285156 41.714844 111.5 41.617188 110.910156 41.375 C 110.320312 41.175781 109.878906 40.835938 109.535156 40.34375 C 109.191406 39.90625 108.945312 39.269531 108.847656 38.484375 C 108.699219 37.75 108.648438 36.820312 108.648438 35.742188 L 108.648438 19.386719 C 108.648438 18.261719 108.699219 17.332031 108.847656 16.546875 C 108.992188 15.8125 109.191406 15.175781 109.582031 14.6875 C 109.925781 14.246094 110.371094 13.90625 111.007812 13.707031 C 111.648438 13.511719 112.433594 13.414062 113.367188 13.414062 C 114.496094 13.414062 115.429688 13.5625 116.167969 13.90625 C 116.90625 14.246094 117.542969 14.882812 118.035156 15.8125 L 118.035156 13.660156 L 122.703125 13.660156 L 122.703125 43.480469 C 122.703125 45.878906 122.210938 47.640625 121.179688 48.765625 C 120.148438 49.894531 118.378906 50.480469 115.871094 50.480469 L 109.4375 50.480469 L 109.4375 46.269531 Z M 117.789062 19.4375 C 117.542969 18.898438 117.25 18.507812 116.90625 18.261719 C 116.5625 18.019531 116.019531 17.917969 115.382812 17.917969 C 114.644531 17.917969 114.152344 18.066406 113.90625 18.410156 C 113.660156 18.753906 113.515625 19.4375 113.515625 20.367188 L 113.515625 34.8125 C 113.515625 35.742188 113.660156 36.378906 113.90625 36.722656 C 114.152344 37.066406 114.644531 37.261719 115.382812 37.261719 C 116.019531 37.261719 116.5625 37.164062 116.90625 36.917969 C 117.25 36.671875 117.542969 36.28125 117.789062 35.742188 Z M 117.789062 19.4375 "/>
<path style=" stroke:none;fill-rule:nonzero;fill:rgb(50.196078%,50.196078%,50.196078%);fill-opacity:1;" d="M 126.632812 19.386719 C 126.632812 18.261719 126.679688 17.332031 126.828125 16.546875 C 126.976562 15.8125 127.171875 15.175781 127.566406 14.738281 C 127.910156 14.296875 128.351562 13.953125 128.941406 13.707031 C 129.480469 13.511719 130.21875 13.414062 131.152344 13.414062 C 132.480469 13.414062 133.460938 13.609375 134.101562 13.953125 C 134.738281 14.296875 135.230469 14.835938 135.625 15.472656 L 135.625 4.308594 L 140.683594 4.308594 L 140.683594 42.988281 L 136.015625 42.988281 L 136.015625 40.882812 C 135.574219 41.714844 134.984375 42.351562 134.296875 42.695312 C 133.558594 43.039062 132.578125 43.234375 131.300781 43.234375 C 130.367188 43.234375 129.582031 43.136719 128.992188 42.941406 C 128.351562 42.746094 127.910156 42.402344 127.566406 41.960938 C 127.171875 41.519531 126.976562 40.882812 126.828125 40.101562 C 126.679688 39.367188 126.632812 38.386719 126.632812 37.261719 Z M 135.769531 19.4375 C 135.527344 18.898438 135.230469 18.507812 134.886719 18.261719 C 134.542969 18.019531 134.003906 17.917969 133.363281 17.917969 C 132.625 17.917969 132.136719 18.066406 131.890625 18.410156 C 131.644531 18.753906 131.496094 19.4375 131.496094 20.367188 L 131.496094 36.332031 C 131.496094 37.261719 131.644531 37.945312 131.890625 38.238281 C 132.136719 38.582031 132.625 38.777344 133.363281 38.777344 C 134.003906 38.777344 134.542969 38.679688 134.886719 38.4375 C 135.230469 38.191406 135.527344 37.800781 135.769531 37.261719 Z M 135.769531 19.4375 "/>
<path style=" stroke:none;fill-rule:nonzero;fill:rgb(50.196078%,50.196078%,50.196078%);fill-opacity:1;" d="M 150.023438 42.988281 L 145.011719 42.988281 L 145.011719 13.660156 L 149.679688 13.660156 L 149.679688 15.617188 C 150.023438 14.980469 150.613281 14.441406 151.347656 14.003906 C 152.085938 13.609375 153.066406 13.414062 154.394531 13.414062 C 155.230469 13.414062 155.917969 13.511719 156.507812 13.707031 C 157.046875 13.90625 157.539062 14.246094 157.882812 14.6875 C 158.226562 15.128906 158.472656 15.765625 158.621094 16.5 C 158.769531 17.28125 158.816406 18.261719 158.816406 19.386719 L 158.816406 26.683594 L 154.296875 26.683594 L 154.296875 19.976562 C 154.296875 19.242188 154.199219 18.753906 153.953125 18.410156 C 153.707031 18.066406 153.214844 17.917969 152.480469 17.917969 C 151.789062 17.917969 151.25 18.066406 150.90625 18.3125 C 150.511719 18.554688 150.21875 18.996094 150.023438 19.535156 Z M 150.023438 42.988281 "/>
<path style=" stroke:none;fill-rule:nonzero;fill:rgb(50.196078%,50.196078%,50.196078%);fill-opacity:1;" d="M 166.628906 9.398438 L 161.664062 9.398438 L 161.664062 4.308594 L 166.628906 4.308594 Z M 166.628906 42.988281 L 161.664062 42.988281 L 161.664062 13.660156 L 166.628906 13.660156 Z M 166.628906 42.988281 "/>
<path style=" stroke:none;fill-rule:nonzero;fill:rgb(50.196078%,50.196078%,50.196078%);fill-opacity:1;" d="M 172.671875 42.988281 L 169.132812 13.660156 L 174.390625 13.660156 L 176.648438 35.9375 L 176.847656 35.9375 L 179.304688 13.660156 L 184.511719 13.660156 L 180.53125 42.988281 Z M 172.671875 42.988281 "/>
<path style=" stroke:none;fill-rule:nonzero;fill:rgb(50.196078%,50.196078%,50.196078%);fill-opacity:1;" d="M 191.195312 30.0625 L 191.195312 36.96875 C 191.195312 37.898438 191.339844 38.535156 191.585938 38.777344 C 191.832031 39.074219 192.371094 39.21875 193.304688 39.21875 C 194.191406 39.21875 194.78125 39.074219 195.027344 38.777344 C 195.273438 38.535156 195.417969 37.898438 195.417969 36.96875 L 195.417969 33 L 199.941406 33 L 199.941406 37.261719 C 199.941406 38.632812 199.839844 39.707031 199.695312 40.542969 C 199.496094 41.375 199.152344 42.011719 198.660156 42.449219 C 198.171875 42.890625 197.484375 43.136719 196.648438 43.28125 C 195.761719 43.429688 194.632812 43.480469 193.257812 43.480469 C 191.832031 43.480469 190.652344 43.429688 189.71875 43.28125 C 188.785156 43.136719 188.097656 42.84375 187.605469 42.402344 C 187.066406 41.960938 186.722656 41.375 186.574219 40.542969 C 186.378906 39.707031 186.28125 38.632812 186.28125 37.261719 L 186.28125 19.386719 C 186.28125 18.019531 186.378906 16.941406 186.574219 16.109375 C 186.722656 15.277344 187.066406 14.640625 187.605469 14.199219 C 188.097656 13.808594 188.785156 13.511719 189.71875 13.367188 C 190.652344 13.21875 191.832031 13.171875 193.257812 13.171875 C 194.632812 13.171875 195.761719 13.21875 196.648438 13.367188 C 197.484375 13.511719 198.171875 13.757812 198.660156 14.199219 C 199.152344 14.640625 199.496094 15.226562 199.695312 16.058594 C 199.839844 16.890625 199.941406 18.019531 199.941406 19.386719 L 199.941406 30.0625 Z M 191.195312 26.046875 L 195.417969 26.046875 L 195.417969 19.78125 C 195.417969 18.851562 195.273438 18.214844 195.027344 17.96875 C 194.78125 17.722656 194.191406 17.578125 193.304688 17.578125 C 192.371094 17.578125 191.832031 17.722656 191.585938 17.96875 C 191.339844 18.214844 191.195312 18.851562 191.195312 19.78125 Z M 191.195312 26.046875 "/>
</g>
</svg>
